<?xml version="1.0" encoding="UTF-8" standalone="no"?>
<svg
   height="15.9354"
   aria-hidden="true"
   viewBox="0 0 12.972 15.9354"
   version="1.1"
   width="12.972"
   data-view-component="true"
   class="octicon octicon-mark-github v-align-middle"
   id="svg1"
   sodipodi:docname="apple.svg"
   inkscape:version="1.4 (e7c3feb1, 2024-10-09)"
   xmlns:inkscape="http://www.inkscape.org/namespaces/inkscape"
   xmlns:sodipodi="http://sodipodi.sourceforge.net/DTD/sodipodi-0.dtd"
   xmlns="http://www.w3.org/2000/svg"
   xmlns:svg="http://www.w3.org/2000/svg">
  <defs
     id="defs1" />
  <sodipodi:namedview
     id="namedview1"
     pagecolor="#ffffff"
     bordercolor="#000000"
     borderopacity="0.25"
     inkscape:showpageshadow="2"
     inkscape:pageopacity="0.0"
     inkscape:pagecheckerboard="0"
     inkscape:deskcolor="#d1d1d1"
     inkscape:zoom="12.113676"
     inkscape:cx="0.3302053"
     inkscape:cy="10.029986"
     inkscape:window-width="1200"
     inkscape:window-height="1186"
     inkscape:window-x="0"
     inkscape:window-y="25"
     inkscape:window-maximized="0"
     inkscape:current-layer="svg1">
    <inkscape:page
       x="0"
       y="0"
       width="12.972"
       height="15.9354"
       id="page2"
       margin="0"
       bleed="0" />
  </sodipodi:namedview>
  <path
     d="m 12.5589,5.4318 a 3.61,3.61 0 0 0 -1.7248,3.0365 3.5132,3.5132 0 0 0 2.1379,3.2223 8.394,8.394 0 0 1 -1.0948,2.2618 c -0.6816,0.9812 -1.3943,1.9623 -2.4787,1.9623 -1.0844,0 -1.3633,-0.63 -2.613,-0.63 -1.2187,0 -1.6525,0.6507 -2.644,0.6507 -0.9915,0 -1.6834,-0.9089 -2.4787,-2.0243 A 9.7842,9.7842 0 0 1 0,8.6335 C 0,5.5351 2.014,3.893 3.9969,3.893 c 1.0535,0 1.9314,0.6919 2.5924,0.6919 0.63,0 1.6112,-0.7333 2.8092,-0.7333 a 3.7579,3.7579 0 0 1 3.1604,1.5802 z M 8.8305,2.54 A 3.5615,3.5615 0 0 0 9.6774,0.32 1.5353,1.5353 0 0 0 9.6464,0 3.5686,3.5686 0 0 0 7.3019,1.2084 3.4629,3.4629 0 0 0 6.424,3.3669 1.419,1.419 0 0 0 6.455,3.6561 1.19,1.19 0 0 0 6.6719,3.6768 3.0935,3.0935 0 0 0 8.8305,2.54 Z"
     id="path1"
     style="fill:#464a4e;fill-opacity:1" />
</svg>
