<?xml version="1.0" encoding="UTF-8" standalone="no"?>
<svg
   width="11.890625"
   zoomAndPan="magnify"
   viewBox="0 0 8.9179688 12.720491"
   height="16.960655"
   preserveAspectRatio="xMidYMid"
   version="1.0"
   id="svg10366"
   xmlns="http://www.w3.org/2000/svg"
   xmlns:svg="http://www.w3.org/2000/svg">
  <defs
     id="defs10">
    <clipPath
       id="7df71c5433">
      <path
         d="M 0.015625,0 H 594.98437 V 841.5 H 0.015625 Z m 0,0"
         clip-rule="nonzero"
         id="path1" />
    </clipPath>
    <clipPath
       id="85c9ecbdb5">
      <path
         d="M 0.015625,0 H 594.98437 V 69.6875 H 0.015625 Z m 0,0"
         clip-rule="nonzero"
         id="path2" />
    </clipPath>
    <clipPath
       id="b73c3840fd">
      <path
         d="m 475,46.242188 h 8.98437 V 58.984375 H 475 Z m 0,0"
         clip-rule="nonzero"
         id="path7" />
    </clipPath>
    <clipPath
       id="9446c510ac">
      <path
         d="m 475,55 h 8.98437 v 3 H 475 Z m 0,0"
         clip-rule="nonzero"
         id="path8" />
    </clipPath>
  </defs>
  <g
     clip-path="url(#7df71c5433)"
     id="g12"
     transform="translate(-475.03124,-46.263886)">
    <path
       fill="#ffffff"
       d="M 0.015625,0 H 594.98437 V 841.5 H 0.015625 Z m 0,0"
       fill-opacity="1"
       fill-rule="nonzero"
       id="path11" />
    <path
       fill="#ffffff"
       d="M 0.015625,0 H 594.98437 V 841.5 H 0.015625 Z m 0,0"
       fill-opacity="1"
       fill-rule="nonzero"
       id="path12" />
  </g>
  <g
     clip-path="url(#85c9ecbdb5)"
     id="g13"
     transform="translate(-475.03124,-46.263886)">
    <path
       fill="#faf8f8"
       d="M 0.015625,0 H 617.46484 V 69.6875 H 0.015625 Z m 0,0"
       fill-opacity="1"
       fill-rule="nonzero"
       id="path13" />
  </g>
  <g
     clip-path="url(#b73c3840fd)"
     id="g237"
     transform="translate(-475.03124,-46.263886)">
    <path
       fill="#000000"
       d="m 482.89844,47.445312 v -0.554687 c 0,-0.191406 -0.0899,-0.367187 -0.24219,-0.484375 -0.15625,-0.121094 -0.35547,-0.167969 -0.55078,-0.128906 l -6.07422,1.171875 c -0.57031,0.07031 -1,0.53125 -1,1.074219 v 9.375 c 0,0.597656 0.51562,1.085937 1.14453,1.085937 h 6.625 c 0.63281,0 1.14844,-0.488281 1.14844,-1.085937 v -9.375 c 0,-0.566407 -0.46485,-1.03125 -1.05078,-1.078126 z m -0.75,-0.96875 c 0.13281,-0.02734 0.26562,0.0039 0.37109,0.08594 0.10547,0.07813 0.16406,0.199219 0.16406,0.328125 v 0.550781 h -5.53906 z m 1.58593,11.421876 c 0,0.488281 -0.41796,0.882812 -0.93359,0.882812 h -6.625 c -0.51172,0 -0.92969,-0.394531 -0.92969,-0.882812 v -9.375 c 0,-0.445313 0.35157,-0.820313 0.82032,-0.875 0.0351,-0.0039 0.0703,-0.0039 0.10937,-0.0039 h 6.625 c 0.51563,0 0.93359,0.394531 0.93359,0.878907 z m 0,0"
       fill-opacity="1"
       fill-rule="nonzero"
       id="path236" />
  </g>
  <path
     fill="#000000"
     d="m 1.1132886,3.2712696 h 6.69141 c 0.0586,0 0.10547,-0.04297 0.10547,-0.09766 v -0.871094 c 0,-0.05469 -0.0469,-0.101562 -0.10547,-0.101562 h -6.69141 c -0.0586,0 -0.10547,0.04687 -0.10547,0.101562 v 0.871098 c 0,0.05469 0.0469,0.09766 0.10547,0.09766 z m 0,0"
     fill-opacity="1"
     fill-rule="nonzero"
     id="path237" />
  <path
     fill="#000000"
     d="m 6.8398486,5.0876756 c -0.47265,-0.828124 -1.38281,-1.339843 -2.375,-1.34375 -0.004,0 -0.004,0 -0.008,0 0,0 0,0 -0.004,0 -0.99609,0.0039 -1.90625,0.515626 -2.375,1.34375 0,0.0039 -0.004,0.0039 -0.004,0.0078 0,0 0,0.0039 -0.004,0.0039 -0.20703,0.367188 -0.3164,0.78125 -0.3164,1.203125 0,0.425782 0.10546,0.832032 0.32031,1.203125 0,0.0039 0,0.0078 0.004,0.0078 0.47266,0.832031 1.38282,1.34375 2.37891,1.34375 1,0 1.91016,-0.511719 2.38281,-1.34375 0,0 0.004,-0.0039 0.004,-0.0039 0,-0.0039 0,-0.0039 0,-0.0039 0.21094,-0.375 0.32031,-0.777343 0.32031,-1.203125 0,-0.421875 -0.10937,-0.835937 -0.32031,-1.203125 0,0 0,-0.0039 0,-0.0039 0,0 -0.004,-0.0039 -0.004,-0.0078 z m -0.16015,2.277344 h -1.03907 c 0.0899,-0.296875 0.14063,-0.617187 0.14844,-0.960937 h 1.15625 c -0.0117,0.335937 -0.10156,0.660156 -0.26562,0.960937 z m -4.44141,0 c -0.16406,-0.300781 -0.25391,-0.625 -0.26953,-0.960937 h 1.16016 c 0.008,0.34375 0.0586,0.664062 0.14843,0.960937 z m 0,-2.128906 h 1.03906 c -0.0898,0.296875 -0.14062,0.621094 -0.14843,0.964844 h -1.16016 c 0.0156,-0.335938 0.10937,-0.664063 0.26953,-0.964844 z m 3.17969,0 c 0.0976,0.296875 0.14844,0.617188 0.15625,0.964844 h -1.00781 v -0.964844 z m -0.85156,-0.199219 v -1.007812 c 0.19921,0.136719 0.55078,0.445312 0.78125,1.007812 z m -0.21485,-1.007812 v 1.007812 h -0.78125 c 0.23047,-0.5625 0.58203,-0.867187 0.78125,-1.007812 z m 0,1.207031 v 0.964844 h -1.00781 c 0.008,-0.347656 0.0586,-0.667969 0.15234,-0.964844 z m -1.00781,1.167969 h 1.00781 v 0.960937 h -0.85156 c -0.0977,-0.292968 -0.14844,-0.613281 -0.15625,-0.960937 z m 1.00781,1.164062 v 1.003907 c -0.19922,-0.136719 -0.55078,-0.445313 -0.78125,-1.003907 z m 0.21485,1.003907 v -1.003907 h 0.78125 c -0.23047,0.558594 -0.58204,0.867188 -0.78125,1.003907 z m 0,-1.207032 v -0.960937 h 1.00781 c -0.008,0.347656 -0.0625,0.667969 -0.15625,0.960937 z m 1.22265,-1.164062 c -0.008,-0.34375 -0.0586,-0.667969 -0.14844,-0.964844 h 1.03907 c 0.16015,0.300781 0.25,0.628906 0.26562,0.964844 z m 0.76953,-1.164063 h -0.98437 c -0.20313,-0.535156 -0.50391,-0.871093 -0.73828,-1.0625 0.70703,0.101563 1.33593,0.484375 1.72265,1.0625 z m -2.47656,-1.0625 c -0.23437,0.191407 -0.53516,0.527344 -0.73828,1.0625 h -0.98438 c 0.38672,-0.578125 1.01563,-0.960937 1.72266,-1.0625 z m -1.72266,3.59375 h 0.98438 c 0.20312,0.535157 0.50391,0.867188 0.73828,1.0625 -0.70703,-0.105469 -1.33594,-0.488281 -1.72266,-1.0625 z m 2.47657,1.0625 c 0.23437,-0.195312 0.53515,-0.527343 0.73828,-1.0625 h 0.98437 c -0.38672,0.574219 -1.01562,0.957031 -1.72265,1.0625 z m 0,0"
     fill-opacity="1"
     fill-rule="nonzero"
     id="path238" />
  <g
     clip-path="url(#9446c510ac)"
     id="g239"
     transform="translate(-475.03124,-46.263886)">
    <path
       fill="#000000"
       d="m 482.5,55.152344 c -0.18359,0 -0.35547,0.07031 -0.47266,0.195312 -0.0391,0.03516 -0.90625,0.882813 -2.53906,0.882813 -1.58203,0 -2.44141,-0.789063 -2.53125,-0.878907 -0.12109,-0.128906 -0.29687,-0.199218 -0.47656,-0.199218 -0.16016,0 -0.31641,0.05469 -0.4336,0.15625 -0.26562,0.226562 -0.28515,0.613281 -0.0469,0.863281 0.0508,0.05078 1.25,1.28125 3.48828,1.28125 2.24219,0 3.44141,-1.230469 3.48828,-1.28125 0.23828,-0.25 0.21875,-0.636719 -0.043,-0.863281 -0.11718,-0.101563 -0.27343,-0.15625 -0.43359,-0.15625 z m 0,0"
       fill-opacity="1"
       fill-rule="nonzero"
       id="path239" />
  </g>
</svg>
