<?xml version="1.0" encoding="UTF-8" standalone="no"?>
<svg
   height="30"
   aria-hidden="true"
   viewBox="0 0 30 30"
   version="1.1"
   width="30"
   data-view-component="true"
   class="octicon octicon-mark-github v-align-middle"
   id="svg1"
   sodipodi:docname="github.svg"
   inkscape:version="1.4 (e7c3feb1, 2024-10-09)"
   xmlns:inkscape="http://www.inkscape.org/namespaces/inkscape"
   xmlns:sodipodi="http://sodipodi.sourceforge.net/DTD/sodipodi-0.dtd"
   xmlns="http://www.w3.org/2000/svg"
   xmlns:svg="http://www.w3.org/2000/svg">
  <defs
     id="defs1" />
  <sodipodi:namedview
     id="namedview1"
     pagecolor="#ffffff"
     bordercolor="#000000"
     borderopacity="0.25"
     inkscape:showpageshadow="2"
     inkscape:pageopacity="0.0"
     inkscape:pagecheckerboard="0"
     inkscape:deskcolor="#d1d1d1"
     inkscape:zoom="12.113676"
     inkscape:cx="0.3302053"
     inkscape:cy="10.029986"
     inkscape:window-width="1200"
     inkscape:window-height="1186"
     inkscape:window-x="0"
     inkscape:window-y="25"
     inkscape:window-maximized="0"
     inkscape:current-layer="svg1" />
  <path
     d="M 15.000025,0 C 6.7121851,0 0,6.8818455 0,15.379173 c 0,6.80562 4.2939208,12.553414 10.256104,14.590155 0.750002,0.135063 1.030437,-0.326312 1.030437,-0.730173 0,-0.365096 -0.01826,-1.575366 -0.01826,-2.864545 C 7.5000116,27.086066 6.525662,25.433146 6.225662,24.569234 6.0560957,24.126583 5.32566,22.761176 4.6865282,22.396091 4.1621798,22.107222 3.4121786,21.39577 4.6682682,21.377053 c 1.181741,-0.01878 2.0256555,1.115327 2.3073952,1.576704 1.350002,2.32693 3.5060926,1.671645 4.3682676,1.267772 0.130434,-0.998979 0.524348,-1.671646 0.956088,-2.05679 C 8.962187,21.780925 5.47566,20.454304 5.47566,14.571427 c 0,-1.671644 0.5804351,-3.05577 1.5365242,-4.132312 -0.1499984,-0.385148 -0.6743475,-1.9618468 0.1500016,-4.0761491 0,0 1.2560895,-0.4038709 4.1256592,1.5766992 1.200003,-0.3463658 2.474347,-0.5188796 3.750013,-0.5188796 1.274346,0 2.55,0.1738518 3.75,0.5188796 2.869564,-1.9992918 4.124356,-1.5766992 4.124356,-1.5766992 0.825656,2.1143023 0.300003,3.6910011 0.150003,4.0761491 0.956087,1.076542 1.537821,2.440608 1.537821,4.132312 0,5.901593 -3.506083,7.208154 -6.843918,7.593312 0.543905,0.481436 1.012172,1.404184 1.012172,2.845807 0,2.056803 -0.01834,3.709721 -0.01834,4.228609 0,0.403861 0.281744,0.885297 1.030444,0.731506 C 25.707384,27.932587 30,22.164739 30,15.379173 30.00005,6.8818455 23.287871,0 15.000025,0 Z"
     id="path1"
     style="stroke-width:1.32071;fill:#706f6f;fill-opacity:1" />
</svg>
