<?xml version="1.0" encoding="UTF-8" standalone="no"?>
<svg
   viewBox="0 0 24 24"
   data-supported-dps="24x24"
   fill="currentColor"
   class="mercado-match"
   width="24"
   height="24"
   focusable="false"
   version="1.1"
   id="svg1"
   sodipodi:docname="linkedin.svg"
   inkscape:version="1.4 (e7c3feb1, 2024-10-09)"
   xmlns:inkscape="http://www.inkscape.org/namespaces/inkscape"
   xmlns:sodipodi="http://sodipodi.sourceforge.net/DTD/sodipodi-0.dtd"
   xmlns="http://www.w3.org/2000/svg"
   xmlns:svg="http://www.w3.org/2000/svg">
  <defs
     id="defs1" />
  <sodipodi:namedview
     id="namedview1"
     pagecolor="#ffffff"
     bordercolor="#000000"
     borderopacity="0.25"
     inkscape:showpageshadow="2"
     inkscape:pageopacity="0.0"
     inkscape:pagecheckerboard="0"
     inkscape:deskcolor="#d1d1d1"
     inkscape:zoom="7.5787636"
     inkscape:cx="18.076827"
     inkscape:cy="6.9272513"
     inkscape:window-width="1200"
     inkscape:window-height="1186"
     inkscape:window-x="0"
     inkscape:window-y="25"
     inkscape:window-maximized="0"
     inkscape:current-layer="svg1" />
  <path
     d="M 22.2,0 H 1.8 A 1.8,1.8 0 0 0 0,1.8 V 22.2 A 1.8,1.8 0 0 0 1.8,24 H 22.2 A 1.8,1.8 0 0 0 24,22.2 V 1.8 A 1.8,1.8 0 0 0 22.2,0 Z M 7.2,20.4 H 3.6 V 9.6 H 7.2 Z M 5.4,7.5 A 2.1,2.1 0 1 1 7.56,5.4 2.136,2.136 0 0 1 5.4,7.5 Z m 15,12.9 h -3.6 v -5.688 c 0,-1.704 -0.72,-2.316 -1.656,-2.316 a 2.088,2.088 0 0 0 -1.944,2.232 0.792,0.792 0 0 0 0,0.168 V 20.4 H 9.6 V 9.6 h 3.48 v 1.56 a 3.732,3.732 0 0 1 3.24,-1.68 c 1.86,0 4.032,1.032 4.032,4.392 z"
     id="path1"
     style="stroke-width:1.20001;fill:#706f6f;fill-opacity:1" />
</svg>
